<svg width="27" height="27" viewBox="0 0 27 27" fill="none" xmlns="http://www.w3.org/2000/svg">
<path d="M14.003 6.00195C14.0607 6.06463 14.1074 6.13667 14.141 6.21497C17.0743 11.297 20.0076 16.3793 22.941 21.462C22.961 21.497 22.979 21.5339 22.997 21.5709C22.9733 21.5656 22.9501 21.558 22.928 21.548L22.076 21.058L20.251 20.002C19.631 19.6433 19.0107 19.2853 18.39 18.928C18.099 18.761 17.807 18.597 17.515 18.428C17.5058 18.384 17.4863 18.3429 17.458 18.308C16.658 16.918 15.8556 15.5279 15.051 14.1379C14.703 13.5379 14.3537 12.9363 14.003 12.3329V6.00195Z" fill="#9E2064"/>
<path d="M14.003 6.00195V12.3339C13.985 12.3609 13.967 12.388 13.95 12.416C13.4373 13.3026 12.925 14.1896 12.413 15.077C11.7704 16.1916 11.128 17.3063 10.486 18.421L5.00104 21.5909C5.00801 21.5506 5.02521 21.5127 5.05103 21.481C8.01369 16.3476 10.9767 11.2143 13.94 6.08093C13.956 6.05293 13.965 6.01095 14.003 6.00195Z" fill="#FB4F01"/>
<path d="M5 21.588L10.485 18.418C10.555 18.418 10.624 18.418 10.694 18.418H17.133C17.26 18.418 17.387 18.418 17.514 18.424C17.806 18.589 18.098 18.753 18.389 18.924C19.0097 19.2813 19.63 19.6393 20.25 19.998L22.078 21.056L22.93 21.546C22.9521 21.556 22.9753 21.5637 22.999 21.569C22.999 21.613 22.969 21.594 22.952 21.594C22.866 21.594 22.78 21.594 22.693 21.594H5.133C5.09 21.594 5.045 21.59 5 21.588Z" fill="#662E90"/>
<path d="M17.514 18.427C17.387 18.427 17.26 18.421 17.133 18.421H10.694C10.624 18.421 10.555 18.421 10.485 18.421C11.127 17.3063 11.7693 16.1917 12.412 15.077C12.924 14.1897 13.4363 13.3027 13.949 12.416C13.965 12.388 13.984 12.361 14.002 12.334C14.3513 12.934 14.7007 13.5356 15.05 14.139C15.85 15.5283 16.6524 16.9183 17.457 18.309C17.485 18.3433 17.5045 18.3837 17.514 18.427Z" fill="#FEFEFE"/>
</svg>
