<svg width="27" height="27" viewBox="0 0 27 27" fill="none" xmlns="http://www.w3.org/2000/svg">
<path d="M19.479 14.254C20.0451 14.1169 20.5611 13.8231 20.9679 13.4062C21.3747 12.9894 21.6558 12.4663 21.779 11.897C22.309 9.93705 20.773 7.84505 18.601 7.26305C18.442 7.21005 18.548 7.26305 18.389 7.21005L19.157 4.32305L17.357 3.84605L16.615 6.73305L15.215 6.36205L15.93 3.47505L14.156 2.99805L13.389 5.88605L9.73302 4.87905L9.15102 7.10405L10.819 7.55405C11.0112 7.6148 11.1716 7.74906 11.2653 7.92757C11.359 8.10608 11.3783 8.31436 11.319 8.50705L9.17402 16.507C9.12825 16.7072 9.00492 16.881 8.83112 16.9903C8.65732 17.0996 8.44725 17.1355 8.24702 17.09L7.00202 16.746L5.99902 18.782L9.62702 19.762L8.85902 22.649L10.713 23.149L11.481 20.263L12.881 20.634L12.113 23.521L13.913 23.998L14.689 21.113C17.337 21.828 20.515 21.457 21.362 18.253C21.5775 17.4714 21.5061 16.6385 21.1608 15.905C20.8154 15.1715 20.2188 14.5858 19.479 14.254ZM14.606 8.56005C14.632 8.56005 14.818 8.61305 16.645 9.11605C16.8659 9.148 17.0774 9.22648 17.2656 9.3463C17.4538 9.46612 17.6145 9.62454 17.7369 9.81108C17.8593 9.99763 17.9408 10.208 17.9758 10.4284C18.0108 10.6488 17.9986 10.8741 17.9401 11.0894C17.8815 11.3047 17.7779 11.5051 17.6361 11.6774C17.4943 11.8497 17.3176 11.9899 17.1175 12.0887C16.9175 12.1876 16.6987 12.2428 16.4757 12.2508C16.2528 12.2588 16.0306 12.2193 15.824 12.135L13.789 11.579L14.606 8.56005ZM14.5 18.76C13.335 18.438 12.064 18.098 12.064 18.098L13.149 13.963C13.149 13.963 13.705 14.122 15.612 14.625C15.9128 14.6662 16.2014 14.771 16.4586 14.9322C16.7158 15.0935 16.9357 15.3077 17.1038 15.5605C17.2718 15.8133 17.3842 16.099 17.4334 16.3986C17.4826 16.6982 17.4674 17.0048 17.389 17.298C17.3176 17.5978 17.1816 17.8783 16.9906 18.12C16.7996 18.3618 16.5581 18.5589 16.283 18.6978C16.0079 18.8366 15.7059 18.9137 15.398 18.9238C15.09 18.9338 14.7836 18.8766 14.5 18.756V18.76Z" fill="#F39325"/>
</svg>
