<svg id="Rupee" xmlns="http://www.w3.org/2000/svg" width="32" height="32" viewBox="0 0 32 32">
  <rect id="Rectangle_27" data-name="Rectangle 27" width="32" height="32" fill="none"/>
  <g id="money_1_" data-name="money (1)" transform="translate(-61.806 8)">
    <path id="Path_1" data-name="Path 1" d="M84.171,4.078a.4.4,0,0,0-.294-.115H81.691a4.425,4.425,0,0,0-.818-1.841h2.979a.393.393,0,0,0,.409-.409V.409A.393.393,0,0,0,83.851,0H73.215a.394.394,0,0,0-.409.409v1.7a.415.415,0,0,0,.409.409h1.854q2.7,0,3.426,1.445h-5.28a.394.394,0,0,0-.409.409v1.3a.394.394,0,0,0,.409.409h5.459a2.5,2.5,0,0,1-1.311,1.6,5.769,5.769,0,0,1-2.717.55H73.215a.415.415,0,0,0-.409.409v1.624a.382.382,0,0,0,.115.281q2.454,2.608,6.366,7.3a.377.377,0,0,0,.32.153H82.1a.371.371,0,0,0,.371-.23.349.349,0,0,0-.051-.435q-3.733-4.577-5.868-6.852A6.484,6.484,0,0,0,80.08,9.077a4.779,4.779,0,0,0,1.649-2.992h2.148a.394.394,0,0,0,.409-.409v-1.3A.4.4,0,0,0,84.171,4.078Z" fill="#00274c"/>
  </g>
</svg>
