<svg width="27" height="27" viewBox="0 0 27 27" fill="none" xmlns="http://www.w3.org/2000/svg">
<path d="M22.167 11.659L22.214 11.879C22.1751 11.9166 22.1414 11.9593 22.114 12.006C21.2185 14.1894 19.8182 16.1294 18.028 17.667C16.431 19.169 14.3329 20.0243 12.141 20.067C11.155 20.076 10.176 20.005 9.197 19.92L8.98795 19.802C8.51966 19.1175 8.1096 18.395 7.762 17.642C7.52305 16.6711 7.4081 15.6738 7.41996 14.674C7.45128 13.252 7.89788 11.8703 8.70475 10.699C9.51162 9.52769 10.6435 8.61799 11.961 8.08199C13.3319 7.47487 14.8419 7.25091 16.33 7.43398C17.1295 7.59713 17.8993 7.88142 18.613 8.27699C20.0336 9.12705 21.2475 10.2823 22.167 11.659ZM18.277 13.595C18.153 10.62 16.601 8.617 13.932 8.566C12.6099 8.59703 11.3497 9.13196 10.4089 10.0614C9.46817 10.9908 8.91808 12.2444 8.87101 13.566C8.89772 14.8192 9.41492 16.0119 10.3115 16.888C11.2081 17.764 12.4125 18.2534 13.666 18.251C14.2784 18.2623 14.8867 18.1493 15.4542 17.9187C16.0217 17.6882 16.5365 17.3449 16.9674 16.9096C17.3984 16.4744 17.7366 15.9562 17.9615 15.3864C18.1864 14.8167 18.2934 14.2073 18.276 13.595H18.277Z" fill="#035323"/>
<path d="M9.19696 19.917C10.177 20.002 11.1559 20.074 12.1409 20.064C14.3329 20.0212 16.4309 19.1659 18.028 17.664C19.8182 16.1264 21.2184 14.1864 22.114 12.003C22.1413 11.9563 22.175 11.9135 22.2139 11.876C22.6576 12.5023 22.9237 13.2368 22.9839 14.002C23.0648 14.7003 22.9029 15.4053 22.5255 15.9984C22.148 16.5914 21.5779 17.0366 20.9109 17.259C19.2878 18.0084 17.8059 19.0317 16.53 20.284C15.8503 21.056 14.9619 21.6151 13.9719 21.894C13.2931 21.9794 12.604 21.9274 11.9457 21.741C11.2873 21.5546 10.6732 21.2376 10.14 20.809C9.76798 20.5792 9.44705 20.2756 9.19696 19.917Z" fill="#0395D8"/>
<path d="M7.76197 17.639C8.10965 18.3919 8.51976 19.1144 8.98798 19.799C8.02313 19.7032 7.09798 19.3658 6.29798 18.8179C5.71437 18.384 5.28978 17.77 5.08972 17.0708C4.88966 16.3716 4.92525 15.626 5.19098 14.949C5.49098 13.859 6.06797 12.8679 6.30597 11.7579C6.49997 10.8509 6.71196 9.94895 6.88996 9.03895C7.28496 7.01595 8.55396 6.13096 10.848 6.25996C10.012 7.12077 9.26184 8.06087 8.60797 9.06696C7.28792 11.0109 6.71702 13.3674 7.00098 15.7C7.04236 16.4107 7.30888 17.0898 7.76197 17.639Z" fill="#B2D237"/>
<path d="M22.166 11.6589C21.2475 10.2813 20.0342 9.12509 18.614 8.27396C17.9003 7.87842 17.1305 7.59413 16.331 7.43094C16.226 7.36249 16.1171 7.30005 16.005 7.24393C14.4353 6.61244 12.7671 6.26079 11.076 6.20493C11.5663 5.59249 12.2653 5.18242 13.0392 5.05326C13.813 4.9241 14.6073 5.08492 15.27 5.50492C16.9615 6.50741 18.8522 7.12695 20.809 7.31992C21.2639 7.37494 21.6863 7.58455 22.0052 7.91367C22.3241 8.24279 22.5203 8.67142 22.561 9.1279C22.6939 9.99212 22.5559 10.8763 22.166 11.6589Z" fill="#E9E714"/>
<path d="M11.077 6.20392C12.7681 6.26005 14.4363 6.61208 16.006 7.24396C16.1181 7.30005 16.227 7.36243 16.332 7.43091C14.8438 7.24789 13.334 7.47185 11.963 8.07892C10.6456 8.61492 9.51366 9.52462 8.70679 10.6959C7.89993 11.8672 7.45333 13.249 7.422 14.671C7.40989 15.6707 7.52447 16.668 7.76301 17.6389C7.30894 17.0898 7.04168 16.4102 7.00001 15.6989C6.71605 13.3663 7.28695 11.0099 8.607 9.06592C9.26079 8.05977 10.011 7.11966 10.847 6.25891L11.077 6.20392Z" fill="#4EB647"/>
<path d="M18.276 13.595C18.294 14.2077 18.1874 14.8176 17.9626 15.3879C17.7379 15.9581 17.3997 16.4769 16.9686 16.9126C16.5374 17.3483 16.0224 17.6919 15.4545 17.9227C14.8867 18.1534 14.2778 18.2664 13.665 18.2549C12.4115 18.2573 11.2071 17.768 10.3105 16.892C9.4139 16.016 8.8967 14.8232 8.87 13.5699C8.91706 12.2484 9.46722 10.9947 10.408 10.0653C11.3487 9.13591 12.6089 8.60098 13.931 8.56995C16.6 8.61695 18.152 10.62 18.276 13.595Z" fill="#FEFEFD"/>
</svg>
