<svg width="27" height="27" viewBox="0 0 27 27" fill="none" xmlns="http://www.w3.org/2000/svg">
<path d="M18.2526 8.98804C18.4737 9.10517 18.688 9.23465 18.8945 9.37598C19.7913 9.94847 20.5602 10.7002 21.1526 11.584C21.6703 12.3804 22.0063 13.2811 22.1366 14.222C22.2337 14.8795 22.2441 15.5469 22.1676 16.207C22.0105 17.5234 21.4597 18.7617 20.5875 19.76C19.7606 20.7433 18.7436 21.5494 17.5975 22.13C16.569 22.6414 15.4451 22.9326 14.2976 22.985C12.9355 23.0371 11.5741 22.8655 10.2676 22.4771C9.01969 22.1106 7.92267 21.3527 7.13855 20.3151C6.63683 19.6686 6.20354 18.9718 5.84558 18.236C5.831 18.1993 5.81835 18.162 5.80762 18.124L6.31653 18.535C7.23922 19.294 8.2548 19.9324 9.33862 20.4351C10.6616 21.0682 12.1368 21.314 13.5936 21.144C14.5675 21.0135 15.5039 20.6837 16.3446 20.175C17.5 19.5207 18.5025 18.6275 19.2855 17.5551C20.0859 16.4562 20.4475 15.0984 20.2996 13.7471C20.1665 12.6605 19.8206 11.6107 19.2816 10.658C18.9869 10.1119 18.6582 9.58491 18.2976 9.07996C18.2756 9.05796 18.2466 9.03904 18.2526 8.98804Z" fill="#2C2F7D"/>
<path d="M21.2395 9.27709C21.1685 9.29509 21.1345 9.2401 21.0885 9.2041C19.9222 8.22854 18.5836 7.48023 17.1416 6.99804C16.0309 6.63997 14.8521 6.54547 13.6986 6.72204C12.2363 6.9802 10.8616 7.5989 9.69858 8.52209C8.96657 9.05045 8.34909 9.72164 7.88352 10.4951C7.53804 11.0881 7.31119 11.7425 7.21555 12.4221C7.07466 13.6277 7.23194 14.8495 7.67356 15.9801C7.99076 16.8555 8.39262 17.6978 8.87351 18.4951L8.92856 18.5901C8.80373 18.5973 8.67912 18.5713 8.56748 18.515C7.93991 18.3138 7.36259 17.9811 6.87388 17.5389C6.38517 17.0968 5.99634 16.5554 5.7335 15.951C5.41529 15.237 5.20113 14.4809 5.09751 13.706C4.97605 12.9599 4.96804 12.1996 5.07358 11.451C5.22364 10.4522 5.60361 9.50195 6.18357 8.67504C6.60714 8.10234 7.08502 7.57189 7.61057 7.09106C8.46514 6.27889 9.51665 5.70368 10.6615 5.42211C11.3909 5.22865 12.1374 5.10672 12.8905 5.0581C13.4155 5.0221 13.9396 4.99812 14.4646 5.00012C16.115 4.99726 17.7126 5.58097 18.9725 6.64709C19.8333 7.37409 20.5788 8.22747 21.1836 9.17809C21.2016 9.21028 21.2173 9.24367 21.2306 9.27807L21.2395 9.27709Z" fill="#6DB0FC"/>
<path d="M14.1436 10.1781C15.1576 10.1781 16.1725 10.1781 17.1875 10.1781C17.2925 10.1781 17.3476 10.1931 17.3316 10.3181C17.3038 10.6458 17.1907 10.9605 17.0035 11.2309C16.8163 11.5012 16.5615 11.7178 16.2646 11.8592C16.0181 11.9801 15.7472 12.043 15.4726 12.0431C15.1186 12.0431 14.7636 12.0501 14.4096 12.0431C14.2766 12.0431 14.2386 12.0761 14.2386 12.2111C14.2432 13.5191 14.2432 14.8275 14.2386 16.1361C14.2228 16.5972 14.061 17.0415 13.7765 17.4047C13.492 17.7679 13.0995 18.0314 12.6556 18.1571C12.5007 18.2007 12.3413 18.2261 12.1806 18.2331C12.0926 18.2331 12.0536 18.2131 12.0596 18.1171C12.1143 17.2738 12.1669 16.4301 12.2176 15.5861C12.2736 14.6621 12.3516 13.7391 12.3826 12.8141C12.3896 12.6221 12.4156 12.4312 12.4346 12.2392C12.4536 12.0472 12.4536 12.0462 12.2516 12.0462C11.3516 12.0462 10.4585 12.0462 9.56254 12.0462C9.40954 12.0462 9.36761 12.0031 9.38261 11.8571C9.42763 11.4014 9.63914 10.9785 9.97661 10.6691C10.3141 10.3597 10.7538 10.1855 11.2116 10.1801C12.1886 10.1751 13.1656 10.1801 14.1426 10.1801L14.1436 10.1781Z" fill="#6DB0FC"/>
</svg>
