<svg width="27" height="27" viewBox="0 0 27 27" fill="none" xmlns="http://www.w3.org/2000/svg">
<path d="M22.9997 13.9978C23.0023 16.3392 22.0918 18.5893 20.4616 20.2699C18.8314 21.9505 16.6101 22.9291 14.2697 22.9978C11.8839 23.0678 9.56793 22.1879 7.83052 20.5514C6.0931 18.9148 5.07638 16.6555 5.00373 14.2698C4.93507 11.884 5.81587 9.56855 7.45283 7.83166C9.08979 6.09477 11.3491 5.07852 13.7347 5.00586C14.938 4.97041 16.1363 5.17665 17.2585 5.61255C18.3807 6.04844 19.404 6.70502 20.2679 7.54345C21.1318 8.38189 21.8187 9.38514 22.2879 10.4938C22.7572 11.6024 22.9992 12.7939 22.9997 13.9978ZM14.5708 10.2709C14.5708 10.1479 14.5708 10.0239 14.5708 9.90088C14.5752 9.86004 14.5705 9.81873 14.5571 9.7799C14.5437 9.74108 14.5219 9.70569 14.4932 9.67627C14.4646 9.64685 14.4298 9.62404 14.3913 9.60962C14.3528 9.5952 14.3116 9.58944 14.2707 9.59277C14.1007 9.59277 13.9297 9.59277 13.7597 9.59277C13.717 9.5876 13.6736 9.59232 13.633 9.60656C13.5924 9.62081 13.5556 9.64432 13.5255 9.67505C13.4953 9.70578 13.4726 9.74292 13.4592 9.78381C13.4457 9.8247 13.4417 9.86813 13.4477 9.91076C13.4477 10.1398 13.4477 10.3689 13.4477 10.5989C13.4477 10.6989 13.4348 10.7498 13.3138 10.7698C12.9994 10.8185 12.6993 10.9346 12.4338 11.1099C12.1422 11.2914 11.9097 11.5538 11.765 11.8654C11.6202 12.1769 11.5694 12.5238 11.6187 12.8638C11.6404 13.1866 11.7618 13.4948 11.9663 13.7456C12.1707 13.9964 12.4479 14.1775 12.7597 14.2638C13.0701 14.3723 13.3903 14.4507 13.7158 14.4978C14.0834 14.5376 14.4447 14.6223 14.7917 14.7499C14.8892 14.7837 14.9787 14.8371 15.0548 14.907C15.1308 14.9768 15.1917 15.0615 15.2337 15.1558C15.3132 15.3571 15.3232 15.5794 15.2619 15.787C15.2007 15.9946 15.0717 16.1759 14.8957 16.3019C14.7123 16.4314 14.4976 16.5094 14.2738 16.5278C13.5288 16.5978 12.7897 16.4028 12.6347 15.5488C12.6263 15.4892 12.5968 15.4346 12.5515 15.3949C12.5061 15.3552 12.448 15.3331 12.3878 15.3328C12.1589 15.3213 11.9296 15.3213 11.7008 15.3328C11.6619 15.3325 11.6235 15.3415 11.5886 15.3586C11.5537 15.3758 11.5233 15.4008 11.4997 15.4318C11.4761 15.4627 11.4601 15.4987 11.4528 15.5369C11.4456 15.5751 11.4472 15.6144 11.4577 15.6519C11.52 16.1109 11.7383 16.5345 12.0758 16.8518C12.4221 17.1563 12.8507 17.3515 13.3077 17.4128C13.4167 17.4318 13.4527 17.4658 13.4487 17.5768C13.4397 17.8168 13.4437 18.0588 13.4487 18.2998C13.4439 18.3397 13.4482 18.3801 13.461 18.4181C13.4739 18.4561 13.495 18.4909 13.523 18.5197C13.551 18.5484 13.5851 18.5705 13.6228 18.5843C13.6604 18.5982 13.7008 18.6036 13.7408 18.5999C13.9178 18.5999 14.0937 18.5999 14.2697 18.5999C14.3106 18.6051 14.3522 18.6009 14.3913 18.5878C14.4304 18.5746 14.466 18.5528 14.4954 18.5239C14.5249 18.4951 14.5474 18.46 14.5614 18.4211C14.5753 18.3823 14.5802 18.3408 14.5758 18.2998C14.5861 18.0943 14.5861 17.8884 14.5758 17.6829C14.5608 17.4999 14.6158 17.4298 14.8048 17.3898C15.3037 17.308 15.7534 17.0409 16.0639 16.642C16.3745 16.243 16.5229 15.7415 16.4797 15.2378C16.476 14.9262 16.3787 14.6229 16.2004 14.3673C16.022 14.1117 15.7709 13.9158 15.4797 13.8048C15.2084 13.6927 14.9263 13.6089 14.6378 13.5548C14.1894 13.5011 13.7465 13.4091 13.3138 13.2798C13.1491 13.238 13.0045 13.1391 12.906 13.0006C12.8074 12.8621 12.7612 12.6931 12.7757 12.5238C12.7702 12.3519 12.8211 12.1829 12.9206 12.0426C13.0201 11.9023 13.1627 11.7985 13.3267 11.7468C13.4695 11.6926 13.6202 11.6615 13.7728 11.6548C14.3578 11.6238 14.9477 11.7648 15.1307 12.4548C15.147 12.5126 15.1831 12.5628 15.2326 12.5968C15.2821 12.6308 15.3419 12.6464 15.4017 12.6409C15.5657 12.6409 15.7307 12.6409 15.8957 12.6409C16.1957 12.6409 16.3017 12.5058 16.2237 12.2168C16.1496 11.9094 15.998 11.6261 15.7834 11.3938C15.5688 11.1615 15.2984 10.988 14.9978 10.8898C14.8588 10.8388 14.6538 10.8769 14.5908 10.7399C14.5523 10.5865 14.5452 10.427 14.5698 10.2709H14.5708ZM7.25569 14.0878C7.24659 14.4822 7.28022 14.8765 7.35578 15.2638C7.51025 16.1579 7.84474 17.0113 8.33894 17.7723C8.83314 18.5333 9.47677 19.186 10.2308 19.6908C10.7496 20.0465 11.3175 20.3245 11.9167 20.5159C12.1697 20.5979 12.3167 20.4868 12.3167 20.2228C12.3167 20.0818 12.3167 19.9408 12.3167 19.7998C12.3333 19.6965 12.3094 19.5908 12.2499 19.5048C12.1905 19.4187 12.1002 19.3589 11.9978 19.3378C11.2396 19.0438 10.5529 18.5915 9.98371 18.0109C9.00893 17.0099 8.44249 15.6814 8.39497 14.285C8.34744 12.8887 8.82229 11.5248 9.72676 10.4598C10.3447 9.73806 11.1332 9.18215 12.0207 8.84277C12.114 8.82045 12.1959 8.76495 12.2512 8.68652C12.3064 8.60809 12.3312 8.51222 12.3207 8.41687C12.3207 8.27587 12.3207 8.13477 12.3207 7.99377C12.3207 7.69377 12.1837 7.59384 11.8937 7.68384C10.8694 8.01046 9.94173 8.58551 9.19367 9.35779C8.57371 9.97878 8.08315 10.7166 7.75032 11.5286C7.41748 12.3405 7.24903 13.2103 7.25471 14.0878H7.25569ZM20.7487 13.5228C20.6829 12.5435 20.3954 11.5918 19.9079 10.7399C19.4204 9.8879 18.7457 9.15789 17.9348 8.60486C17.3803 8.19665 16.7618 7.88339 16.1047 7.67785C15.8337 7.59185 15.6937 7.69185 15.6907 7.96985C15.6907 8.07585 15.6907 8.18186 15.6907 8.28686C15.6907 8.68686 15.7267 8.73684 16.0977 8.88684C16.9353 9.22516 17.679 9.76044 18.2658 10.4473C18.8526 11.1341 19.2652 11.9522 19.4686 12.8324C19.672 13.7125 19.6602 14.6287 19.4343 15.5033C19.2083 16.3779 18.7749 17.1853 18.1707 17.8568C17.5734 18.5176 16.8286 19.0281 15.9968 19.3468C15.7478 19.4468 15.6967 19.5289 15.6907 19.7969C15.6907 19.9259 15.6907 20.0558 15.6907 20.1848C15.6907 20.5088 15.8258 20.6038 16.1378 20.5028C18.8808 19.6078 20.7448 17.0148 20.7478 13.5238L20.7487 13.5228Z" fill="#2775C9"/>
<path d="M14.5698 10.2708C14.5445 10.4209 14.5485 10.5744 14.5818 10.7229C14.6448 10.8599 14.8499 10.8228 14.9889 10.8728C15.2894 10.9709 15.5597 11.1442 15.7743 11.3763C15.9889 11.6084 16.1406 11.8916 16.2149 12.1988C16.2929 12.4888 16.1869 12.6219 15.8869 12.6239C15.7219 12.6239 15.5578 12.6239 15.3928 12.6239C15.333 12.6296 15.2731 12.614 15.2235 12.58C15.174 12.546 15.138 12.4957 15.1218 12.4378C14.9388 11.7528 14.3488 11.6108 13.7638 11.6378C13.6112 11.6446 13.4607 11.6757 13.3179 11.7298C13.1538 11.7815 13.0111 11.8853 12.9116 12.0256C12.8122 12.1659 12.7613 12.3349 12.7669 12.5068C12.7524 12.6761 12.7986 12.8451 12.8971 12.9836C12.9957 13.1221 13.1401 13.221 13.3048 13.2628C13.7378 13.3921 14.1812 13.4841 14.6299 13.5378C14.9184 13.5919 15.2005 13.6757 15.4718 13.7878C15.763 13.8988 16.0142 14.0947 16.1925 14.3503C16.3709 14.6059 16.4682 14.9092 16.4718 15.2208C16.5152 15.7246 16.3669 16.2262 16.0563 16.6252C15.7457 17.0242 15.2959 17.2912 14.7969 17.3728C14.6079 17.4138 14.5529 17.4828 14.5679 17.6668C14.5849 17.8668 14.5739 18.0778 14.5679 18.2838C14.5723 18.3248 14.5674 18.3663 14.5535 18.4051C14.5396 18.4439 14.517 18.4791 14.4876 18.508C14.4581 18.5369 14.4225 18.5586 14.3834 18.5717C14.3444 18.5849 14.3028 18.589 14.2619 18.5838C14.0859 18.5838 13.9088 18.5838 13.7328 18.5838C13.6928 18.5875 13.6526 18.5823 13.6149 18.5684C13.5772 18.5546 13.5432 18.5324 13.5152 18.5036C13.4872 18.4749 13.466 18.4402 13.4531 18.4022C13.4403 18.3642 13.436 18.3236 13.4408 18.2838C13.4408 18.0428 13.4338 17.8019 13.4408 17.5609C13.4408 17.4499 13.4088 17.4158 13.2998 17.3968C12.8425 17.3356 12.4135 17.1404 12.0669 16.8358C11.7293 16.5186 11.511 16.0949 11.4489 15.6358C11.4383 15.5984 11.4366 15.559 11.4439 15.5208C11.4511 15.4826 11.4673 15.4467 11.4909 15.4157C11.5144 15.3848 11.5448 15.3598 11.5797 15.3426C11.6146 15.3254 11.653 15.3166 11.6919 15.3169C11.9204 15.3053 12.1493 15.3053 12.3778 15.3169C12.4379 15.3174 12.4958 15.3393 12.541 15.3787C12.5863 15.4182 12.6161 15.4724 12.6249 15.5318C12.7799 16.3858 13.5188 16.5808 14.2638 16.5108C14.4876 16.4924 14.7024 16.4144 14.8859 16.2849C15.0621 16.159 15.1912 15.9777 15.2526 15.7701C15.314 15.5625 15.3042 15.3403 15.2249 15.1389C15.183 15.0445 15.1221 14.9597 15.046 14.8899C14.97 14.82 14.8804 14.7666 14.7829 14.7329C14.4355 14.6052 14.0738 14.5204 13.7058 14.4808C13.3804 14.4337 13.0603 14.3554 12.7499 14.2468C12.4381 14.1603 12.161 13.9793 11.9566 13.7285C11.7522 13.4777 11.6307 13.1695 11.6089 12.8468C11.5598 12.5067 11.6107 12.1598 11.7556 11.8483C11.9006 11.5368 12.1331 11.2743 12.4248 11.0929C12.6903 10.9176 12.9905 10.8016 13.3048 10.7528C13.4258 10.7338 13.4409 10.6829 13.4389 10.5819C13.4339 10.3529 13.4389 10.1239 13.4389 9.89486C13.4329 9.85213 13.4368 9.80851 13.4503 9.76754C13.4639 9.72656 13.4866 9.68928 13.5169 9.65853C13.5471 9.62778 13.584 9.60447 13.6248 9.59029C13.6655 9.57612 13.709 9.57153 13.7519 9.57686C13.9229 9.57686 14.0928 9.57686 14.2628 9.57686C14.3038 9.57354 14.345 9.57929 14.3834 9.59371C14.4219 9.60813 14.4567 9.63082 14.4854 9.66024C14.514 9.68966 14.5358 9.72505 14.5492 9.76388C14.5626 9.8027 14.5673 9.84401 14.5629 9.88485C14.5629 10.0078 14.5629 10.1318 14.5629 10.2548L14.5698 10.2708Z" fill="#FEFEFE"/>
<path d="M7.25472 14.0888C7.2483 13.2113 7.41611 12.3413 7.74825 11.529C8.0804 10.7167 8.57035 9.97835 9.18978 9.35675C9.93786 8.58451 10.8654 8.00947 11.8897 7.6828C12.1787 7.5888 12.3147 7.68884 12.3167 7.99384C12.3167 8.13484 12.3167 8.27581 12.3167 8.41681C12.3272 8.51217 12.3025 8.60804 12.2473 8.68647C12.192 8.76489 12.1101 8.82052 12.0168 8.84284C11.1293 9.18221 10.3407 9.73801 9.72274 10.4598C8.81827 11.5247 8.34343 12.8886 8.39095 14.285C8.43848 15.6813 9.00504 17.0099 9.97982 18.0108C10.549 18.5916 11.2355 19.044 11.9937 19.3378C12.0964 19.3589 12.187 19.4189 12.2464 19.5052C12.3059 19.5915 12.3297 19.6974 12.3128 19.8008C12.3128 19.9418 12.3128 20.0828 12.3128 20.2238C12.3128 20.4878 12.1638 20.5988 11.9128 20.5168C11.3136 20.3258 10.7456 20.0482 10.2268 19.6928C9.47275 19.188 8.82913 18.5353 8.33492 17.7744C7.84072 17.0134 7.50624 16.1599 7.35177 15.2658C7.27719 14.8781 7.24463 14.4835 7.25472 14.0888Z" fill="#FEFEFE"/>
<path d="M20.7477 13.5238C20.7477 17.0168 18.8797 19.6078 16.1367 20.4998C15.8257 20.5998 15.6907 20.5048 15.6897 20.1818C15.6897 20.0528 15.6897 19.9228 15.6897 19.7938C15.6897 19.5268 15.7467 19.4398 15.9957 19.3438C16.8274 19.0248 17.5722 18.5144 18.1697 17.8538C18.7739 17.1823 19.2074 16.3752 19.4333 15.5006C19.6593 14.626 19.6711 13.7098 19.4677 12.8297C19.2642 11.9496 18.8516 11.1316 18.2648 10.4448C17.678 9.7581 16.9343 9.22297 16.0967 8.88477C15.7247 8.73777 15.6897 8.6848 15.6897 8.2848C15.6897 8.1788 15.6897 8.07278 15.6897 7.96778C15.6897 7.68878 15.8328 7.58881 16.1038 7.67481C16.7604 7.88072 17.3784 8.19396 17.9327 8.60181C18.7443 9.15521 19.4194 9.88583 19.9071 10.7385C20.3948 11.5912 20.6822 12.5437 20.7477 13.5238Z" fill="#FEFEFE"/>
</svg>
