<svg width="27" height="27" viewBox="0 0 27 27" fill="none" xmlns="http://www.w3.org/2000/svg">
<path d="M22.9855 14.0085C22.9862 16.3765 22.0526 18.649 20.3875 20.3326C18.7224 22.0163 16.4603 22.9749 14.0925 23.0005C12.888 23.0209 11.6918 22.7977 10.5757 22.3442C9.45965 21.8908 8.4467 21.2165 7.59771 20.3618C6.74873 19.5071 6.08115 18.4897 5.63519 17.3706C5.18923 16.2515 4.97403 15.0538 5.0025 13.8495C5.00428 12.679 5.2379 11.5204 5.68987 10.4407C6.14185 9.36094 6.80321 8.38144 7.6358 7.55871C8.46839 6.73597 9.45567 6.08629 10.5407 5.64721C11.6257 5.20812 12.787 4.98833 13.9575 5.00048C15.1437 4.99199 16.3199 5.21913 17.4178 5.66857C18.5156 6.11801 19.5133 6.78086 20.3531 7.61876C21.1928 8.45666 21.858 9.45294 22.3099 10.5498C22.7617 11.6466 22.9914 12.8223 22.9855 14.0085ZM13.9784 9.50853C12.6711 9.50853 11.3638 9.50853 10.0565 9.50853C9.91045 9.50853 9.79556 9.51349 9.79656 9.70849C9.80156 10.2915 9.79656 10.8755 9.79656 11.4585C9.79656 11.6155 9.8785 11.6975 10.0285 11.6665C10.2899 11.6419 10.5531 11.6419 10.8145 11.6665C11.3905 11.6595 11.9656 11.6665 12.5416 11.6665C12.7416 11.6665 12.8325 11.7375 12.8255 11.9405C12.8185 12.1785 12.8185 12.4175 12.8255 12.6555C12.8255 12.8295 12.7564 12.9075 12.5774 12.9115C11.6194 12.9419 10.6676 13.076 9.73846 13.3115C9.34099 13.3839 8.96837 13.556 8.65545 13.8115C8.60308 13.8605 8.56268 13.9209 8.53741 13.988C8.51214 14.0551 8.50276 14.1271 8.50982 14.1985C8.51688 14.2698 8.54025 14.3387 8.57818 14.3995C8.61611 14.4604 8.66749 14.5118 8.72845 14.5496C8.85303 14.6281 8.98466 14.695 9.12152 14.7495C10.2073 15.1226 11.3422 15.3332 12.4896 15.3745C12.8056 15.3985 12.8245 15.4035 12.8245 15.7185C12.8245 16.9345 12.8245 18.1509 12.8245 19.3675C12.8245 19.6365 12.8845 19.6996 13.1585 19.7006C13.7092 19.7039 14.2601 19.7039 14.8115 19.7006C15.0855 19.7006 15.1445 19.6374 15.1445 19.3664C15.1445 18.6764 15.1445 17.9855 15.1445 17.2955C15.1445 16.7615 15.1445 16.2275 15.1445 15.6955C15.1445 15.5295 15.1795 15.3955 15.3755 15.3845C16.0956 15.3475 16.8123 15.2609 17.5206 15.1255C18.0732 15.0465 18.6099 14.8805 19.1105 14.6335C19.5765 14.3795 19.6005 13.9564 19.1745 13.6944C18.8875 13.5174 18.5743 13.3868 18.2465 13.3075C17.3232 13.0772 16.3785 12.9431 15.4275 12.9075C15.3885 12.9125 15.3488 12.9084 15.3117 12.8954C15.2746 12.8824 15.2411 12.8609 15.2137 12.8326C15.1863 12.8044 15.1658 12.7702 15.154 12.7327C15.1422 12.6951 15.1393 12.6553 15.1456 12.6164C15.1456 12.4164 15.1456 12.2215 15.1456 12.0245C15.1456 11.7075 15.1955 11.6535 15.5115 11.6395C15.5782 11.6361 15.6449 11.6361 15.7115 11.6395C16.4505 11.6825 17.1895 11.6715 17.9285 11.6395C18.1545 11.6315 18.2005 11.5395 18.1955 11.3395C18.1825 10.8485 18.1845 10.3555 18.1955 9.86449C18.2035 9.55449 18.1705 9.50548 17.8525 9.50548L13.9784 9.50853Z" fill="#28A17C"/>
<path d="M13.9774 9.50854H17.8504C18.1684 9.50854 18.2003 9.55755 18.1933 9.86755C18.1813 10.3586 18.1793 10.8515 18.1933 11.3425C18.1983 11.5485 18.1533 11.6376 17.9263 11.6426C17.1873 11.6706 16.4483 11.6806 15.7093 11.6426C15.6427 11.6391 15.576 11.6391 15.5093 11.6426C15.1933 11.6566 15.1434 11.7106 15.1434 12.0276C15.1434 12.2276 15.1434 12.4215 15.1434 12.6195C15.1372 12.6583 15.1401 12.6982 15.1519 12.7357C15.1637 12.7732 15.1841 12.8074 15.2115 12.8357C15.2389 12.8639 15.2724 12.8854 15.3095 12.8984C15.3466 12.9114 15.3863 12.9155 15.4254 12.9105C16.3763 12.9462 17.321 13.0802 18.2443 13.3105C18.5721 13.3898 18.8853 13.5204 19.1723 13.6975C19.5983 13.9605 19.5723 14.3826 19.1083 14.6366C18.608 14.8835 18.0717 15.0495 17.5194 15.1285C16.8111 15.2638 16.0944 15.3504 15.3743 15.3876C15.1743 15.3966 15.1424 15.5336 15.1434 15.6986C15.1434 16.2326 15.1434 16.7676 15.1434 17.2986C15.1434 17.9893 15.1434 18.6795 15.1434 19.3695C15.1434 19.6405 15.0834 19.7016 14.8104 19.7036C14.259 19.7036 13.708 19.7036 13.1573 19.7036C12.8833 19.7036 12.8243 19.6386 12.8233 19.3706C12.8233 18.1546 12.8233 16.9382 12.8233 15.7216C12.8233 15.4066 12.8043 15.4026 12.4883 15.3776C11.341 15.3361 10.206 15.1252 9.12031 14.7516C8.98333 14.6974 8.8518 14.6304 8.72736 14.5515C8.6664 14.5137 8.6149 14.4625 8.57697 14.4016C8.53904 14.3407 8.51567 14.2719 8.50861 14.2006C8.50155 14.1292 8.51105 14.0572 8.53632 13.9901C8.56159 13.923 8.60199 13.8626 8.65436 13.8136C8.96726 13.558 9.33989 13.386 9.73737 13.3136C10.6665 13.0781 11.6184 12.944 12.5764 12.9136C12.7554 12.9136 12.8284 12.8316 12.8244 12.6576C12.8244 12.4196 12.8194 12.1805 12.8244 11.9425C12.8304 11.7425 12.7354 11.6666 12.5394 11.6686C11.9644 11.6746 11.3883 11.6686 10.8123 11.6686C10.5509 11.644 10.2877 11.644 10.0263 11.6686C9.87531 11.6986 9.79438 11.6166 9.79438 11.4596C9.79438 10.8766 9.79438 10.2926 9.79438 9.70959C9.79438 9.51559 9.90739 9.50952 10.0544 9.50952C11.3617 9.50952 12.6691 9.50952 13.9764 9.50952L13.9774 9.50854ZM13.9643 14.6545C13.7083 14.6385 13.4054 14.6756 13.1014 14.6376C12.9224 14.6156 12.8403 14.5375 12.8493 14.3485C12.8603 14.1195 12.8493 13.8886 12.8493 13.6586C12.8493 13.1446 12.8493 13.1446 12.3493 13.1776C12.2923 13.1776 12.2343 13.1776 12.1763 13.1776C11.4893 13.2147 10.8067 13.311 10.1363 13.4656C9.85341 13.521 9.58156 13.6223 9.33137 13.7655C9.06837 13.9195 9.05238 14.0986 9.29438 14.2716C9.41934 14.3652 9.55884 14.4375 9.70734 14.4856C11.0021 14.8243 12.3361 14.99 13.6744 14.9785C14.8149 15.0109 15.9559 14.933 17.0814 14.7456C17.6301 14.7034 18.1646 14.5503 18.6524 14.2955C18.9404 14.1145 18.9354 13.9465 18.6393 13.7695C18.3832 13.6202 18.1046 13.5132 17.8144 13.4525C17.0199 13.2853 16.2134 13.1821 15.4024 13.1436C15.2124 13.1326 15.1094 13.1995 15.1164 13.4105C15.1264 13.7105 15.1164 14.0016 15.1164 14.2976C15.1164 14.5936 15.0574 14.6446 14.7734 14.6526C14.5224 14.6596 14.2674 14.6536 13.9654 14.6536L13.9643 14.6545Z" fill="#FEFEFE"/>
<path d="M13.9655 14.6535C14.2655 14.6535 14.5225 14.6595 14.7775 14.6535C15.0615 14.6455 15.1195 14.5805 15.1205 14.2995C15.1215 14.0185 15.1275 13.7075 15.1205 13.4125C15.1135 13.2015 15.2205 13.1346 15.4065 13.1456C16.2175 13.184 17.024 13.2873 17.8185 13.4545C18.1087 13.5152 18.3873 13.6222 18.6434 13.7715C18.9434 13.9485 18.9435 14.1165 18.6565 14.2975C18.1687 14.5522 17.6342 14.7052 17.0855 14.7475C15.96 14.935 14.819 15.0131 13.6785 14.9805C12.3402 14.992 11.0062 14.8262 9.71144 14.4875C9.56295 14.4393 9.42345 14.367 9.29848 14.2735C9.05648 14.1005 9.07246 13.9215 9.33546 13.7675C9.5841 13.6248 9.85434 13.5235 10.1355 13.4676C10.8063 13.3131 11.4892 13.2166 12.1765 13.1795C12.2335 13.1795 12.2915 13.1795 12.3485 13.1795C12.8485 13.1475 12.8485 13.1465 12.8485 13.6615C12.8485 13.8915 12.8575 14.1215 12.8485 14.3505C12.8395 14.5375 12.9215 14.6176 13.1005 14.6396C13.4055 14.6756 13.7095 14.6375 13.9655 14.6535Z" fill="#28A17C"/>
</svg>
