<svg width="27" height="27" viewBox="0 0 27 27" fill="none" xmlns="http://www.w3.org/2000/svg">
<path d="M5 18.974C5.02858 18.9645 5.0566 18.9535 5.08398 18.941L8.01898 17.441L12.167 15.327L16.213 13.265L20.259 11.203L22.902 9.856L22.983 9.816C23.001 9.873 23.009 11.196 22.992 11.366L22.624 11.554C22.524 11.605 22.424 11.654 22.324 11.707C22.0826 11.8378 21.8851 12.0366 21.7558 12.2787C21.6265 12.5209 21.5713 12.7957 21.597 13.069C21.6165 13.3168 21.6229 13.5655 21.616 13.814C21.6054 14.3724 21.5305 14.9277 21.393 15.469C21.0709 16.7639 20.4112 17.9502 19.481 18.907C18.6496 19.7728 17.6235 20.4277 16.488 20.817C15.9463 21.0052 15.3845 21.1297 14.814 21.188C14.607 21.209 14.399 21.214 14.192 21.228C14.167 21.228 14.143 21.235 14.118 21.238H13.89C13.8656 21.2332 13.8408 21.2298 13.816 21.228C13.4153 21.2192 13.0161 21.1781 12.622 21.105C11.538 20.9064 10.5106 20.4729 9.612 19.835L9.53003 19.775L10.953 19.05C12.1239 19.7108 13.4786 19.971 14.811 19.791C16.1449 19.6272 17.3871 19.0267 18.344 18.083C19.2491 17.2164 19.8654 16.0921 20.109 14.863C20.249 14.1846 20.273 13.4874 20.18 12.801L20.075 12.852L18.327 13.744L11.387 17.281L5.07098 20.5C5.04799 20.5096 5.02426 20.5173 5 20.523V18.974Z" fill="black"/>
<path d="M14.271 6C14.295 6.00588 14.3194 6.01022 14.344 6.013C15.7978 6.07399 17.2031 6.55354 18.391 7.394L18.477 7.456C18.451 7.471 18.432 7.483 18.412 7.493C17.979 7.714 17.544 7.935 17.112 8.157C17.0942 8.1683 17.0736 8.1743 17.0525 8.1743C17.0314 8.1743 17.0108 8.1683 16.993 8.157C16.3653 7.81095 15.6815 7.57839 14.973 7.47C14.4361 7.38555 13.8903 7.37278 13.35 7.432C11.9932 7.56799 10.7207 8.15289 9.73401 9.094C8.77282 9.98823 8.12574 11.1687 7.88898 12.46C7.79679 12.9516 7.76325 13.4525 7.789 13.952C7.796 14.096 7.815 14.24 7.828 14.384C7.828 14.396 7.82801 14.408 7.83801 14.43L22.981 6.712C23 6.77 23.007 8.099 22.991 8.263L22.623 8.451L15.744 11.957L8.99402 15.397L6.98901 16.421L5.07001 17.396C5.0473 17.4057 5.02389 17.4137 5 17.42V15.868C5.01466 15.8649 5.02908 15.8605 5.04303 15.855C5.26503 15.743 5.49099 15.638 5.70599 15.515C5.91628 15.4023 6.09272 15.2356 6.21716 15.0321C6.34161 14.8286 6.40957 14.5955 6.414 14.357C6.42 14.244 6.406 14.129 6.401 14.015C6.36682 13.2969 6.43144 12.5775 6.59302 11.877C6.848 10.7965 7.33566 9.78467 8.02203 8.91211C8.70841 8.03955 9.57697 7.32727 10.567 6.825C11.5305 6.33607 12.5875 6.05919 13.667 6.013C13.6889 6.01062 13.7107 6.00661 13.732 6.001L14.271 6Z" fill="black"/>
</svg>
