<svg width="27" height="27" viewBox="0 0 27 27" fill="none" xmlns="http://www.w3.org/2000/svg">
<path d="M23.0001 21.7748C22.8921 21.7828 22.825 21.7918 22.759 21.7918C21.965 21.7918 21.1711 21.7918 20.3771 21.7918C20.303 21.7945 20.2301 21.7716 20.171 21.7268C18.891 20.4601 17.613 19.1934 16.337 17.9268C16.083 17.6601 15.8122 17.4099 15.5261 17.1777C14.8807 16.6774 14.0746 16.4303 13.2596 16.4828C12.4447 16.5353 11.677 16.8838 11.1011 17.4628C9.66307 18.8818 8.23303 20.3087 6.80103 21.7297C6.75629 21.7706 6.69859 21.7943 6.63806 21.7968C5.80206 21.7968 4.96503 21.7968 4.12903 21.7968C4.10551 21.7971 4.08224 21.7919 4.06104 21.7817C4.59504 21.2267 5.12911 20.6528 5.68311 20.0988C7.00711 18.7758 8.35714 17.4788 9.66614 16.1428C10.1655 15.6408 10.759 15.2421 11.4126 14.9697C12.0662 14.6973 12.7672 14.5564 13.4753 14.5552C14.1835 14.554 14.885 14.6925 15.5396 14.9627C16.1941 15.2328 16.7889 15.6294 17.29 16.1298C19.098 17.9408 20.9251 19.7298 22.7451 21.5298C22.8141 21.5968 22.8901 21.6668 23.0001 21.7748Z" fill="black"/>
<path d="M4 6.00683C4.813 6.00683 5.57706 6.02087 6.34106 5.99987C6.47392 5.99127 6.60691 6.01317 6.72998 6.06396C6.85305 6.11475 6.9629 6.19304 7.05103 6.29284C8.37503 7.62584 9.71303 8.94481 11.051 10.2628C11.3673 10.5905 11.7466 10.8508 12.166 11.0282C12.5854 11.2056 13.0364 11.2965 13.4918 11.2953C13.9472 11.2941 14.3977 11.2008 14.8162 11.0211C15.2346 10.8415 15.6125 10.5792 15.927 10.2499C17.278 8.91387 18.632 7.58083 19.974 6.23583C20.0442 6.15676 20.1314 6.0946 20.2291 6.05407C20.3268 6.01354 20.4325 5.99569 20.5381 6.00182C21.3311 6.01582 22.1241 6.00781 22.951 6.00781C22.8981 6.07181 22.8681 6.11485 22.8311 6.15185C20.9604 8.00118 19.089 9.84987 17.217 11.6979C16.2257 12.6858 14.8831 13.2406 13.4835 13.2406C12.0839 13.2406 10.7414 12.6858 9.75 11.6979C7.87333 9.8552 6.00199 8.00652 4.13599 6.15185C4.10299 6.11885 4.07 6.08183 4 6.00683Z" fill="black"/>
</svg>
